#!OML:ASF F:\VICON\USERDATA\INSTALL\SteveWalk\SteveWalk.ASF
:FULLY-SPECIFIED
:DEGREES
243
root 0.125887 16.4779 5.84044 16.3864 4.22818 -0.0493706
lowerback -14.3457 -0.796421 1.12183
upperback -5.11189 -1.27879 2.19037
thorax 2.6729 -0.62504 1.44732
lowerneck -4.59194 -0.51081 0.0944325
upperneck 9.72701 -0.359515 -3.37003
head 3.99052 -0.32595 -1.15737
rclavicle -2.16489e-014 2.78299e-014
rhumerus -36.4017 -20.2594 -75.8322
rradius 20.9293
rwrist 5.56678
rhand -16.4059 -34.0476
rfingers 7.12502
rthumb 9.80854 -63.7992
lclavicle -2.16489e-014 2.78299e-014
lhumerus -34.0082 6.72753 86.0839
lradius 25.6016
lwrist 3.21703
lhand -19.6169 -18.3834
lfingers 7.12502
lthumb 6.70967 11.4903
rfemur -33.1424 -0.59141 25.0057
rtibia 36.3853
rfoot -20.3552 2.78285
rtoes -8.15586
lfemur -38.035 1.93225 -20.3278
ltibia 75.1118
lfoot -0.160526 0.0900607
ltoes -4.3693
244
root 0.123431 16.4804 6.02928 16.214 4.172 -0.35596
lowerback -14.3559 -0.705869 1.39013
upperback -4.99233 -1.1997 2.19156
thorax 2.79684 -0.586886 1.30912
lowerneck -4.55664 -0.458776 0.132374
upperneck 9.86752 -0.299199 -3.26704
head 4.03451 -0.291083 -1.12812
rclavicle 1.15792e-014 -9.54166e-015
rhumerus -34.8121 -18.6203 -77.4921
rradius 21.6885
rwrist 4.35875
rhand -16.2732 -34.4809
rfingers 7.12502
rthumb 9.9366 -64.2264
lclavicle 1.15792e-014 -9.54166e-015
lhumerus -34.5829 7.5989 85.5235
lradius 23.9487
lwrist 1.78564
lhand -19.5673 -18.473
lfingers 7.12502
lthumb 6.75753 11.3991
rfemur -31.9975 -0.766545 25.4402
rtibia 36.121
rfoot -20.9731 2.90799
rtoes -7.71481
lfemur -39.1857 2.21026 -20.1422
ltibia 74.6368
lfoot -1.31423 0.848059
ltoes -3.431
245
root 0.124517 16.4846 6.22136 16.168 4.31279 -0.337552
lowerback -14.4164 -0.721232 1.44309
upperback -4.97791 -1.22645 2.1249
thorax 2.84223 -0.600495 1.20427
lowerneck -4.40168 -0.474792 0.012882
upperneck 9.95726 -0.321713 -3.14694
head 4.03475 -0.300869 -1.06736
rclavicle -5.93248e-016 1.43125e-014
rhumerus -33.5593 -16.8785 -78.909
rradius 22.73
rwrist 3.31389
rhand -15.9678 -34.7509
rfingers 7.12502
rthumb 10.2312 -64.4821
lclavicle -5.93248e-016 1.43125e-014
lhumerus -35.2469 8.55765 84.8728
lradius 22.3024
lwrist 0.0659893
lhand -19.0348 -17.6329
lfingers 7.12502
lthumb 7.27156 12.2221
rfemur -30.96 -1.32169 25.5808
rtibia 35.9693
rfoot -21.9631 2.92025
rtoes -8.52011
lfemur -40.3118 2.13849 -20.2892
ltibia 73.9123
lfoot -3.13268 1.35059
ltoes -4.45542
246
root 0.121881 16.4815 6.41367 16.1218 4.4774 -0.193486
lowerback -14.4065 -0.793467 1.34369
upperback -5.02133 -1.30225 2.01876
thorax 2.79208 -0.638396 1.13718
lowerneck -4.10895 -0.46158 0.00620001
upperneck 9.98789 -0.311312 -3.08736
head 3.98758 -0.291329 -1.04361
rclavicle 2.34193e-015 -3.97569e-015
rhumerus -32.3234 -15.2183 -80.1693
rradius 23.4262
rwrist 2.30497
rhand -16.2859 -33.4709
rfingers 7.12502
rthumb 9.92437 -63.217
lclavicle 2.34193e-015 -3.97569e-015
lhumerus -36.0645 10.0188 83.8252
lradius 20.7819
lwrist -2.52838
lhand -18.1263 -16.9332
lfingers 7.12502
lthumb 8.14847 12.8897
rfemur -30.055 -1.85895 25.5914
rtibia 35.8965
rfoot -22.7565 3.03016
rtoes -8.90513
lfemur -41.3699 1.93747 -20.5275
ltibia 73.0338
lfoot -4.06334 2.03865
ltoes -2.2469
247
root 0.12139 16.4657 6.60072 16.1361 4.52965 -0.0564804
lowerback -14.4215 -0.828623 1.20331
upperback -5.00884 -1.32602 1.91708
thorax 2.81441 -0.65003 1.10579
lowerneck -4.09065 -0.458344 0.157418
upperneck 10.0143 -0.313644 -3.13548
head 3.9936 -0.288988 -1.08688
rclavicle 1.92231e-014 -1.59028e-015
rhumerus -31.1307 -13.2533 -81.4609
rradius 24.3807
rwrist 0.816617
rhand -16.5477 -32.6084
rfingers 7.12502
rthumb 9.67179 -62.3664
lclavicle 1.92231e-014 -1.59028e-015
lhumerus -36.7523 11.8509 82.5594
lradius 19.2275
lwrist -5.56288
lhand -17.7894 -16.996
lfingers 7.12502
lthumb 8.47362 12.814
rfemur -29.3569 -2.44265 25.5891
rtibia 35.933
rfoot -23.387 3.43399
rtoes -8.64937
lfemur -42.5925 1.84886 -20.8222
ltibia 72.0416
lfoot -4.7015 2.8426
ltoes 0.52882
248
root 0.1192 16.4443 6.78458 16.1689 4.57084 0.0120338
lowerback -14.4084 -0.836513 1.09571
upperback -4.98102 -1.31855 1.82989
thorax 2.83698 -0.646245 1.07645
lowerneck -4.19932 -0.469571 0.352611
upperneck 9.99286 -0.338169 -3.19589
head 4.00736 -0.297041 -1.14372
rclavicle -1.28868e-014 -3.97569e-015
rhumerus -30.0308 -11.4813 -82.5831
rradius 25.5187
rwrist -0.451172
rhand -16.3633 -33.1516
rfingers 7.12502
rthumb 9.84963 -62.9013
lclavicle -1.28868e-014 -3.97569e-015
lhumerus -37.5584 13.4879 81.3004
lradius 18.0358
lwrist -8.33053
lhand -17.8425 -17.0986
lfingers 7.12502
lthumb 8.42237 12.7135
rfemur -28.6511 -2.87929 25.6295
rtibia 35.9789
rfoot -24.1083 3.75142
rtoes -8.21262
lfemur -43.8313 1.82747 -21.05
ltibia 70.888
lfoot -6.31232 3.78176
ltoes -3.78
249
root 0.1118 16.4284 6.96678 16.2343 4.42133 0.126808
lowerback -14.3443 -0.805455 0.91347
upperback -5.0207 -1.24522 1.69303
thorax 2.76101 -0.610022 1.04937
lowerneck -4.19623 -0.457525 0.498834
upperneck 10.0369 -0.338068 -3.14199
head 4.02242 -0.289329 -1.15221
rclavicle 1.60891e-014 -2.0276e-014
rhumerus -29.0368 -10.0136 -83.5427
rradius 26.4878
rwrist -1.35144
rhand -16.3615 -33.2438
rfingers 7.12502
rthumb 9.85144 -62.9933
lclavicle 1.60891e-014 -2.0276e-014
lhumerus -38.6238 14.9505 79.8713
lradius 17.1011
lwrist -10.8279
lhand -17.695 -17.0204
lfingers 7.12502
lthumb 8.56472 12.7858
rfemur -27.9553 -3.02457 25.5679
rtibia 35.949
rfoot -24.6792 4.0659
rtoes -7.23789
lfemur -44.9848 1.86467 -21.3076
ltibia 69.5023
lfoot -6.99703 4.38677
ltoes -6.52301
250
root 0.111801 16.4224 7.16005 16.409 4.10538 0.334332
lowerback -14.439 -0.746452 0.654167
upperback -5.08207 -1.12785 1.57311
thorax 2.74859 -0.551126 1.08904
lowerneck -4.3204 -0.469306 0.526919
upperneck 10.3248 -0.349858 -3.12957
head 4.14983 -0.296589 -1.15839
rclavicle -2.00555e-014 1.39149e-014
rhumerus -28.0853 -8.43939 -84.3268
rradius 27.5001
rwrist -2.27673
rhand -16.3329 -33.2591
rfingers 7.12502
rthumb 9.87904 -63.0074
lclavicle -2.00555e-014 1.39149e-014
lhumerus -39.7377 16.4402 78.4026
lradius 16.0481
lwrist -13.3085
lhand -17.5719 -16.9913
lfingers 7.12502
lthumb 8.68347 12.8101
rfemur -27.3023 -3.36368 25.3657
rtibia 35.8294
rfoot -25.263 4.6056
rtoes -6.62767
lfemur -46.0174 1.87361 -21.6999
ltibia 67.8257
lfoot -7.34436 4.77396
ltoes -5.44318
251
root 0.121887 16.4168 7.36314 16.5986 4.09608 0.327244
lowerback -14.6966 -0.728675 0.752435
upperback -5.15562 -1.11832 1.51646
thorax 2.80623 -0.546946 0.973574
lowerneck -4.15955 -0.464354 0.584867
upperneck 10.3831 -0.343683 -3.16175
head 4.139 -0.29196 -1.17856
rclavicle -7.96381e-015 1.23246e-014
rhumerus -27.2444 -6.84548 -84.9782
rradius 28.7152
rwrist -3.18054
rhand -16.1829 -33.3067
rfingers 7.12502
rthumb 10.0237 -63.048
lclavicle -7.96381e-015 1.23246e-014
lhumerus -41.0908 17.6014 77.0813
lradius 15.4042
lwrist -15.3564
lhand -17.4836 -16.8669
lfingers 7.12502
lthumb 8.76869 12.931
rfemur -26.6083 -4.22726 25.4531
rtibia 35.6606
rfoot -26.0523 5.42175
rtoes -5.97828
lfemur -46.8781 1.65177 -21.8139
ltibia 65.9122
lfoot -7.94179 5.18918
ltoes -3.49374
